<svg xmlns="http://www.w3.org/2000/svg" viewBox="0 0 512 512" xml:space="preserve"><path style="fill:#b9785f" d="M415 512h-71c-9 0-17-8-17-18V71c0-10 8-18 17-18h71c10 0 18 8 18 18v423c0 10-8 18-18 18z"/><path style="fill:#aa6955" d="M344 53c-9 0-17 8-17 18v423c0 10 8 18 17 18V53z"/><path style="fill:#ffd782" d="m384 349 21-64v-5l-21-64c-2-4-7-4-9 0l-21 64v5l21 64c2 4 7 4 9 0z"/><path style="fill:#9b8273" d="M185 512H97c-10 0-18-8-18-18V106c0-10 8-18 18-18h88c10 0 18 8 18 18v388c0 10-8 18-18 18z"/><path style="fill:#876e64" d="M79 106v388c0 10 8 18 18 18V88c-10 0-18 8-18 18z"/><path style="fill:#ffd782" d="m145 367 22-64v-6l-22-64c-1-4-7-4-8 0l-21 64v6l21 64c1 4 7 4 8 0z"/><path style="fill:#707487" d="M309 512h-88c-10 0-18-8-18-18V18c0-10 8-18 18-18h88c10 0 18 8 18 18v476c0 10-8 18-18 18z"/><path style="fill:#5b5d6e" d="M221 512V0c-10 0-18 8-18 18v476c0 10 8 18 18 18z"/><path style="fill:#ffd782" d="m269 323 21-64v-6l-21-64c-1-4-7-4-8 0l-22 64v6l22 64c1 4 7 4 8 0zM203 35h124v18H203zM203 71h124v17H203zM203 424h124v17H203zM203 459h124v18H203zM79 441h124v18H79zM327 441h106v18H327zM327 106h106v18H327zM79 141h124v18H79z"/><path style="fill:#ffc36e" d="M203 35h18v18h-18zM203 71h18v17h-18zM79 141h18v18H79zM79 441h18v18H79zM327 106h17v18h-17zM327 441h17v18h-17zM203 424h18v17h-18zM203 459h18v18h-18z"/></svg>